<svg xmlns="http://www.w3.org/2000/svg" viewBox="0 0 64 64">
  <!-- ピンク背景 -->
  <circle cx="32" cy="32" r="32" fill="#F8C4D0"/>
  <!-- バレリーナ（縮小・中央寄せ） -->
  <g transform="translate(4, 4) scale(0.7)">
    <!-- 頭 -->
    <circle cx="22" cy="9" r="4.5" fill="#3A2316"/>
    <ellipse cx="22" cy="5" rx="3" ry="2.2" fill="#3A2316"/>
    <!-- 胴体 -->
    <rect x="20.5" y="13" width="3" height="3" rx="1" fill="#3A2316"/>
    <path d="M19 16 L25 16 L24 26 L20 26 Z" fill="#3A2316"/>
    <!-- 腕 -->
    <line x1="20" y1="18" x2="7" y2="8" stroke="#3A2316" stroke-width="1.8" stroke-linecap="round"/>
    <circle cx="6" cy="7" r="2.2" fill="#3A2316"/>
    <line x1="24" y1="18" x2="37" y2="8" stroke="#3A2316" stroke-width="1.8" stroke-linecap="round"/>
    <circle cx="38" cy="7" r="2.2" fill="#3A2316"/>
    <!-- スカート -->
    <path d="M10 29 Q16 22 22 21 Q28 22 34 29 Q30 34 22 32 Q14 34 10 29 Z" fill="#3A2316"/>
    <!-- 脚 -->
    <line x1="20" y1="32" x2="18" y2="47" stroke="#3A2316" stroke-width="2.2" stroke-linecap="round"/>
    <line x1="24" y1="32" x2="26" y2="47" stroke="#3A2316" stroke-width="2.2" stroke-linecap="round"/>
    <path d="M18 47 Q14 48 12 47" stroke="#3A2316" stroke-width="1.8" fill="none" stroke-linecap="round"/>
    <path d="M26 47 Q30 48 32 47" stroke="#3A2316" stroke-width="1.8" fill="none" stroke-linecap="round"/>
    <!-- 犬 -->
    <ellipse cx="60" cy="50" rx="11" ry="9" fill="#3A2316"/>
    <circle cx="57" cy="37" r="9" fill="#3A2316"/>
    <path d="M49 33 Q43 27 47 40 Q49 38 50 36 Z" fill="#3A2316"/>
    <path d="M65 33 Q71 27 67 40 Q65 38 64 36 Z" fill="#3A2316"/>
    <rect x="52" y="56" width="5" height="7" rx="2.5" fill="#3A2316"/>
    <rect x="62" y="56" width="5" height="7" rx="2.5" fill="#3A2316"/>
    <path d="M70 47 Q79 41 75 33" stroke="#3A2316" stroke-width="3" fill="none" stroke-linecap="round"/>
  </g>
</svg>
